<mxfile host="app.diagrams.net" agent="Mozilla/5.0 (Windows NT 10.0; Win64; x64) AppleWebKit/537.36 (KHTML, like Gecko) Chrome/127.0.0.0 Safari/537.36 OPR/113.0.0.0" version="24.7.17">
  <diagram name="Page-1" id="5f0bae14-7c28-e335-631c-24af17079c00">
    <mxGraphModel dx="1103" dy="583" grid="1" gridSize="10" guides="1" tooltips="1" connect="1" arrows="1" fold="1" page="1" pageScale="1" pageWidth="1100" pageHeight="850" background="none" math="0" shadow="0">
      <root>
        <mxCell id="0" />
        <mxCell id="1" parent="0" />
        <mxCell id="cZzJJIXl-7JBf4aYZuKc-1" value="" style="rounded=0;whiteSpace=wrap;html=1;" vertex="1" parent="1">
          <mxGeometry x="140" y="20" width="660" height="470" as="geometry" />
        </mxCell>
        <mxCell id="cZzJJIXl-7JBf4aYZuKc-3" value="TMBD" style="rounded=0;whiteSpace=wrap;html=1;" vertex="1" parent="1">
          <mxGeometry x="660" y="40" width="120" height="430" as="geometry" />
        </mxCell>
        <mxCell id="cZzJJIXl-7JBf4aYZuKc-4" value="Utilisateur" style="rounded=0;whiteSpace=wrap;html=1;" vertex="1" parent="1">
          <mxGeometry x="160" y="40" width="480" height="50" as="geometry" />
        </mxCell>
        <mxCell id="cZzJJIXl-7JBf4aYZuKc-5" value="Stockage local" style="rounded=0;whiteSpace=wrap;html=1;" vertex="1" parent="1">
          <mxGeometry x="160" y="425" width="480" height="45" as="geometry" />
        </mxCell>
        <mxCell id="cZzJJIXl-7JBf4aYZuKc-7" value="" style="rounded=0;whiteSpace=wrap;html=1;" vertex="1" parent="1">
          <mxGeometry x="160" y="110" width="480" height="300" as="geometry" />
        </mxCell>
        <mxCell id="cZzJJIXl-7JBf4aYZuKc-8" value="Classes :&lt;div&gt;Utilisateur ;&lt;/div&gt;&lt;div&gt;Visionnage ;&lt;/div&gt;&lt;div&gt;Film&lt;/div&gt;" style="rounded=0;whiteSpace=wrap;html=1;" vertex="1" parent="1">
          <mxGeometry x="170" y="130" width="80" height="270" as="geometry" />
        </mxCell>
        <mxCell id="cZzJJIXl-7JBf4aYZuKc-17" style="edgeStyle=none;curved=1;rounded=0;orthogonalLoop=1;jettySize=auto;html=1;exitX=0.75;exitY=1;exitDx=0;exitDy=0;entryX=0.75;entryY=0;entryDx=0;entryDy=0;fontSize=12;startSize=8;endSize=8;" edge="1" parent="1" source="cZzJJIXl-7JBf4aYZuKc-9" target="cZzJJIXl-7JBf4aYZuKc-10">
          <mxGeometry relative="1" as="geometry" />
        </mxCell>
        <mxCell id="cZzJJIXl-7JBf4aYZuKc-9" value="Console Python" style="rounded=0;whiteSpace=wrap;html=1;" vertex="1" parent="1">
          <mxGeometry x="270" y="130" width="360" height="50" as="geometry" />
        </mxCell>
        <mxCell id="cZzJJIXl-7JBf4aYZuKc-16" style="edgeStyle=none;curved=1;rounded=0;orthogonalLoop=1;jettySize=auto;html=1;exitX=0.25;exitY=0;exitDx=0;exitDy=0;entryX=0.25;entryY=1;entryDx=0;entryDy=0;fontSize=12;startSize=8;endSize=8;" edge="1" parent="1" source="cZzJJIXl-7JBf4aYZuKc-10" target="cZzJJIXl-7JBf4aYZuKc-9">
          <mxGeometry relative="1" as="geometry" />
        </mxCell>
        <mxCell id="cZzJJIXl-7JBf4aYZuKc-18" style="edgeStyle=none;curved=1;rounded=0;orthogonalLoop=1;jettySize=auto;html=1;exitX=0.75;exitY=1;exitDx=0;exitDy=0;entryX=0.75;entryY=0;entryDx=0;entryDy=0;fontSize=12;startSize=8;endSize=8;" edge="1" parent="1" source="cZzJJIXl-7JBf4aYZuKc-10" target="cZzJJIXl-7JBf4aYZuKc-11">
          <mxGeometry relative="1" as="geometry" />
        </mxCell>
        <mxCell id="cZzJJIXl-7JBf4aYZuKc-19" style="edgeStyle=none;curved=1;rounded=0;orthogonalLoop=1;jettySize=auto;html=1;exitX=1;exitY=0.75;exitDx=0;exitDy=0;entryX=0;entryY=0.75;entryDx=0;entryDy=0;fontSize=12;startSize=8;endSize=8;" edge="1" parent="1" source="cZzJJIXl-7JBf4aYZuKc-10" target="cZzJJIXl-7JBf4aYZuKc-3">
          <mxGeometry relative="1" as="geometry" />
        </mxCell>
        <mxCell id="cZzJJIXl-7JBf4aYZuKc-10" value="Service :&lt;div&gt;UtilisateurService / VisionnageService /&lt;/div&gt;&lt;div&gt;FilmService&lt;/div&gt;" style="rounded=0;whiteSpace=wrap;html=1;" vertex="1" parent="1">
          <mxGeometry x="270" y="200" width="360" height="110" as="geometry" />
        </mxCell>
        <mxCell id="cZzJJIXl-7JBf4aYZuKc-11" value="" style="rounded=0;whiteSpace=wrap;html=1;" vertex="1" parent="1">
          <mxGeometry x="270" y="330" width="360" height="70" as="geometry" />
        </mxCell>
        <mxCell id="cZzJJIXl-7JBf4aYZuKc-15" value="" style="endArrow=classic;html=1;rounded=0;fontSize=12;startSize=8;endSize=8;curved=1;exitX=0.25;exitY=0;exitDx=0;exitDy=0;entryX=0.25;entryY=1;entryDx=0;entryDy=0;" edge="1" parent="1" source="cZzJJIXl-7JBf4aYZuKc-11" target="cZzJJIXl-7JBf4aYZuKc-10">
          <mxGeometry width="50" height="50" relative="1" as="geometry">
            <mxPoint x="440" y="230" as="sourcePoint" />
            <mxPoint x="490" y="180" as="targetPoint" />
          </mxGeometry>
        </mxCell>
        <mxCell id="cZzJJIXl-7JBf4aYZuKc-20" style="edgeStyle=none;curved=1;rounded=0;orthogonalLoop=1;jettySize=auto;html=1;exitX=0;exitY=0.25;exitDx=0;exitDy=0;entryX=1;entryY=0.5;entryDx=0;entryDy=0;fontSize=12;startSize=8;endSize=8;" edge="1" parent="1" source="cZzJJIXl-7JBf4aYZuKc-3" target="cZzJJIXl-7JBf4aYZuKc-10">
          <mxGeometry relative="1" as="geometry" />
        </mxCell>
        <mxCell id="cZzJJIXl-7JBf4aYZuKc-21" style="edgeStyle=none;curved=1;rounded=0;orthogonalLoop=1;jettySize=auto;html=1;exitX=0.25;exitY=0;exitDx=0;exitDy=0;entryX=0.418;entryY=0.958;entryDx=0;entryDy=0;entryPerimeter=0;fontSize=12;startSize=8;endSize=8;" edge="1" parent="1" source="cZzJJIXl-7JBf4aYZuKc-9" target="cZzJJIXl-7JBf4aYZuKc-4">
          <mxGeometry relative="1" as="geometry" />
        </mxCell>
        <mxCell id="cZzJJIXl-7JBf4aYZuKc-22" value="" style="endArrow=classic;html=1;rounded=0;fontSize=12;startSize=8;endSize=8;curved=1;exitX=0.789;exitY=1.042;exitDx=0;exitDy=0;exitPerimeter=0;entryX=0.75;entryY=0;entryDx=0;entryDy=0;" edge="1" parent="1" source="cZzJJIXl-7JBf4aYZuKc-4" target="cZzJJIXl-7JBf4aYZuKc-9">
          <mxGeometry width="50" height="50" relative="1" as="geometry">
            <mxPoint x="440" y="230" as="sourcePoint" />
            <mxPoint x="490" y="180" as="targetPoint" />
          </mxGeometry>
        </mxCell>
        <mxCell id="cZzJJIXl-7JBf4aYZuKc-24" style="edgeStyle=none;curved=1;rounded=0;orthogonalLoop=1;jettySize=auto;html=1;exitX=0.75;exitY=1;exitDx=0;exitDy=0;entryX=0.791;entryY=-0.005;entryDx=0;entryDy=0;entryPerimeter=0;fontSize=12;startSize=8;endSize=8;" edge="1" parent="1" source="cZzJJIXl-7JBf4aYZuKc-11" target="cZzJJIXl-7JBf4aYZuKc-5">
          <mxGeometry relative="1" as="geometry" />
        </mxCell>
        <mxCell id="cZzJJIXl-7JBf4aYZuKc-25" value="" style="endArrow=classic;html=1;rounded=0;fontSize=12;startSize=8;endSize=8;curved=1;entryX=0.25;entryY=1;entryDx=0;entryDy=0;exitX=0.418;exitY=0;exitDx=0;exitDy=0;exitPerimeter=0;" edge="1" parent="1" source="cZzJJIXl-7JBf4aYZuKc-5" target="cZzJJIXl-7JBf4aYZuKc-11">
          <mxGeometry width="50" height="50" relative="1" as="geometry">
            <mxPoint x="360" y="350" as="sourcePoint" />
            <mxPoint x="490" y="180" as="targetPoint" />
          </mxGeometry>
        </mxCell>
        <mxCell id="cZzJJIXl-7JBf4aYZuKc-28" value="DAO :&lt;div&gt;PostgrSQL&lt;/div&gt;" style="rounded=0;whiteSpace=wrap;html=1;" vertex="1" parent="1">
          <mxGeometry x="280" y="335" width="120" height="60" as="geometry" />
        </mxCell>
        <mxCell id="cZzJJIXl-7JBf4aYZuKc-29" value="UtilisateurDAO ;&lt;div&gt;VisionnageDAO&lt;/div&gt;" style="rounded=0;whiteSpace=wrap;html=1;" vertex="1" parent="1">
          <mxGeometry x="410" y="335" width="210" height="60" as="geometry" />
        </mxCell>
      </root>
    </mxGraphModel>
  </diagram>
</mxfile>
